<?xml version="1.0" encoding="UTF-8" standalone="no"?>
<!DOCTYPE svg PUBLIC "-//W3C//DTD SVG 1.1//EN" "http://www.w3.org/Graphics/SVG/1.1/DTD/svg11.dtd">
<svg width="100%" height="100%" viewBox="0 0 576 512" version="1.1" xmlns="http://www.w3.org/2000/svg" xmlns:xlink="http://www.w3.org/1999/xlink" xml:space="preserve" xmlns:serif="http://www.serif.com/" style="fill-rule:evenodd;clip-rule:evenodd;stroke-linejoin:round;stroke-miterlimit:2;">
    <g transform="matrix(1,0,0,1,0,55.5268)">
        <path d="M451.5,244.7L576,244.7L576,172L451.5,172L451.5,244.7ZM451.5,70.8L451.5,143.5L576,143.5L576,70.8L451.5,70.8ZM451.5,345.9L576,345.9L576,273.2L451.5,273.2L451.5,345.9ZM0,447.1L124.5,447.1L124.5,374.4L0,374.4L0,447.1ZM150.5,447.1L275,447.1L275,374.4L150.5,374.4L150.5,447.1ZM301,447.1L425.5,447.1L425.5,374.4L301,374.4L301,447.1ZM451.5,447.1L576,447.1L576,374.4L451.5,374.4L451.5,447.1ZM301,345.9L425.5,345.9L425.5,273.2L301,273.2L301,345.9ZM150.5,345.9L275,345.9L275,273.2L150.5,273.2L150.5,345.9ZM150.5,244.7L275,244.7L275,172L150.5,172L150.5,244.7Z" style="fill:white;fill-rule:nonzero;"/>
    </g>
</svg>
