<?xml version="1.0" encoding="UTF-8" standalone="no"?>
<!DOCTYPE svg PUBLIC "-//W3C//DTD SVG 1.1//EN" "http://www.w3.org/Graphics/SVG/1.1/DTD/svg11.dtd">
<svg width="100%" height="100%" viewBox="0 0 640 512" version="1.1" xmlns="http://www.w3.org/2000/svg" xmlns:xlink="http://www.w3.org/1999/xlink" xml:space="preserve" xmlns:serif="http://www.serif.com/" style="fill-rule:evenodd;clip-rule:evenodd;stroke-linejoin:round;stroke-miterlimit:2;">
    <g transform="matrix(1,0,0,1.18123,0,-37.0855)">
        <path d="M639.8,298.6C638.5,321.7 628.3,343.4 611.4,359.1C594.5,374.8 572.2,383.5 549.1,383.2L331.1,383.2C326.3,383.2 321.7,381.2 318.3,377.8C314.9,374.4 313,369.8 313,365L313,130.2C312.8,126.2 313.9,122.2 316.1,118.8C318.3,115.4 321.4,112.7 325.1,111.1C325.1,111.1 345.2,97.2 387.4,97.2C413.2,97.2 438.5,104.1 460.7,117.3C478,127.5 493,141.1 504.8,157.4C516.6,173.7 524.8,192.2 529,211.8C536.5,209.7 544.3,208.6 552.1,208.6C563.8,208.5 575.4,210.8 586.3,215.3C597.2,219.8 606.8,226.6 615,235C623.2,243.4 629.6,253.3 633.9,264.3C638.2,275.3 640.2,286.9 639.8,298.6ZM285.8,145.1C285.9,144.1 285.8,143.1 285.5,142.2C285.2,141.3 284.7,140.4 284,139.6C283.3,138.8 282.5,138.3 281.6,137.9C280.7,137.5 279.7,137.3 278.7,137.3C277.7,137.3 276.7,137.5 275.8,137.9C274.9,138.3 274.1,138.9 273.4,139.6C272.7,140.3 272.2,141.2 271.9,142.2C271.6,143.2 271.5,144.1 271.6,145.1C265.6,224 261,298 271.6,376.7C271.8,378.4 272.6,380 273.9,381.2C275.2,382.4 276.9,383 278.6,383C280.3,383 282,382.4 283.3,381.2C284.6,380 285.4,378.4 285.6,376.7C296.9,297.3 292.2,224.7 285.6,145.1L285.8,145.1ZM241.8,172.4C241.6,170.6 240.7,168.9 239.4,167.7C238.1,166.5 236.3,165.8 234.4,165.8C232.5,165.8 230.8,166.5 229.4,167.7C228,168.9 227.2,170.6 227,172.4C219.1,240.3 219.1,308.9 227,376.8C227.3,378.6 228.2,380.2 229.5,381.3C230.8,382.4 232.6,383.1 234.3,383.1C236,383.1 237.8,382.5 239.1,381.3C240.4,380.1 241.3,378.5 241.6,376.8C250.4,309 250.4,240.3 241.7,172.4L241.8,172.4ZM197.5,165.5C197.3,163.7 196.5,162.1 195.2,160.9C193.9,159.7 192.2,159.1 190.4,159.1C188.6,159.1 186.9,159.8 185.6,160.9C184.3,162 183.5,163.7 183.3,165.5C176.6,237.5 173.1,304.8 183.3,376.6C183.3,378.5 184,380.3 185.4,381.6C186.8,382.9 188.5,383.7 190.4,383.7C192.3,383.7 194.1,383 195.4,381.6C196.7,380.2 197.5,378.5 197.5,376.6C208,303.8 204.8,238.4 197.6,165.5L197.5,165.5ZM153.5,186.1C153.5,184.2 152.7,182.3 151.4,180.9C150.1,179.5 148.2,178.8 146.2,178.8C144.2,178.8 142.4,179.6 141,180.9C139.6,182.2 138.9,184.1 138.9,186.1C130.8,249.4 130.8,313.6 138.9,376.9C139.1,378.7 139.9,380.3 141.3,381.5C142.7,382.7 144.4,383.4 146.1,383.4C147.8,383.4 149.6,382.7 150.9,381.5C152.2,380.3 153.1,378.7 153.3,376.9C162.1,313.6 162.2,249.4 153.6,186.1L153.5,186.1ZM109,233.7C109,231.8 108.2,229.9 106.9,228.6C105.6,227.3 103.7,226.5 101.8,226.5C99.9,226.5 98,227.3 96.7,228.6C95.4,229.9 94.6,231.8 94.6,233.7C84.1,282.9 89.1,327.6 95,377.3C95.3,378.9 96.1,380.4 97.3,381.5C98.5,382.6 100.1,383.2 101.8,383.2C103.5,383.2 105,382.6 106.3,381.5C107.6,380.4 108.4,379 108.6,377.3C115.2,326.9 120.2,283.2 109,233.7ZM64.9,226.2C64.7,224.4 63.8,222.7 62.5,221.4C61.2,220.1 59.3,219.5 57.5,219.5C55.7,219.5 53.9,220.2 52.5,221.4C51.1,222.6 50.3,224.3 50.1,226.2C40.8,276.4 43.9,320.6 50.4,370.7C51.1,378.3 64,378.2 64.8,370.7C72,319.8 75.3,276.9 65.1,226.2L64.9,226.2ZM20.3,250.8C20.1,249 19.2,247.3 17.9,246C16.6,244.7 14.7,244.1 12.9,244.1C11.1,244.1 9.3,244.8 7.9,246C6.5,247.2 5.6,248.9 5.5,250.8C-3,284.5 -0.4,312.4 6.1,346.2C6.3,347.9 7.1,349.5 8.4,350.6C9.7,351.7 11.3,352.4 13.1,352.4C14.9,352.4 16.5,351.8 17.8,350.6C19.1,349.4 19.9,347.9 20.1,346.2C27.6,311.7 31.3,284.4 20.5,250.8L20.3,250.8Z" style="fill:white;fill-rule:nonzero;"/>
    </g>
</svg>
