<?xml version="1.0" encoding="UTF-8" standalone="no"?>
<!DOCTYPE svg PUBLIC "-//W3C//DTD SVG 1.1//EN" "http://www.w3.org/Graphics/SVG/1.1/DTD/svg11.dtd">
<svg width="100%" height="100%" viewBox="0 0 1036 1200" version="1.1" xmlns="http://www.w3.org/2000/svg" xmlns:xlink="http://www.w3.org/1999/xlink" xml:space="preserve" xmlns:serif="http://www.serif.com/" style="fill-rule:evenodd;clip-rule:evenodd;stroke-linejoin:round;stroke-miterlimit:2;">
    <g transform="matrix(1.58962,0,0,1.58962,-288.029,-366.564)">
        <path d="M817.7,763.3C817.7,883.3 721.9,980.3 600.7,980.3C480.7,980.3 384.9,885.7 384.9,763.3C384.9,705.7 406.7,654.8 441.3,616.6L294.6,763.3L217.6,686.3L383.1,522.6C405.5,500.2 417,471.1 417,439L417,233.6L525.5,233.6L525.5,439C525.5,502 503.1,555.4 459.4,599L454.5,603.8C492.7,568.6 544.8,547.4 600.6,547.4C723.8,547.5 817.7,645.1 817.7,763.3ZM719.5,763.3C719.5,699 666.2,646.9 600.7,646.9C534.6,646.9 483.1,701.5 483.1,763.3C483.1,826.9 535.2,880.9 600.7,880.9C668.6,880.9 719.5,825.8 719.5,763.3Z" style="fill:white;fill-rule:nonzero;"/>
    </g>
</svg>
