<?xml version="1.0" encoding="UTF-8" standalone="no"?>
<!DOCTYPE svg PUBLIC "-//W3C//DTD SVG 1.1//EN" "http://www.w3.org/Graphics/SVG/1.1/DTD/svg11.dtd">
<svg width="100%" height="100%" viewBox="0 0 576 512" version="1.1" xmlns="http://www.w3.org/2000/svg" xmlns:xlink="http://www.w3.org/1999/xlink" xml:space="preserve" xmlns:serif="http://www.serif.com/" style="fill-rule:evenodd;clip-rule:evenodd;stroke-linejoin:round;stroke-miterlimit:2;">
    <g transform="matrix(1.03695,0,0,1.03695,-11.5455,-8.62314)">
        <path d="M549.7,124.1C543.4,100.4 524.9,81.8 501.4,75.5C458.8,64 288,64 288,64C288,64 117.2,64 74.6,75.5C51.1,81.8 32.6,100.4 26.3,124.1C14.9,167 14.9,256.4 14.9,256.4C14.9,256.4 14.9,345.8 26.3,388.7C32.6,412.4 51.1,430.2 74.6,436.5C117.2,448 288,448 288,448C288,448 458.8,448 501.4,436.5C524.9,430.2 543.4,412.3 549.7,388.7C561.1,345.8 561.1,256.4 561.1,256.4C561.1,256.4 561.1,167 549.7,124.1ZM232.2,337.6L232.2,175.2L374.9,256.4L232.2,337.6Z" style="fill:white;fill-rule:nonzero;"/>
    </g>
</svg>
